<svg xmlns="http://www.w3.org/2000/svg" width="1500" height="560" viewBox="0 0 1500 560">
<rect width="100%" height="100%" fill="white"/>
<style>text{font-family:Arial,Helvetica,sans-serif;fill:#222}.title{font-size:30px;font-weight:700}.label{font-size:22px}.tick{font-size:17px;fill:#555}.legend{font-size:19px}.small{font-size:17px}</style>
<text class="label" x="415.0" y="32" text-anchor="middle">DeepSeek same-model</text>
<rect x="90" y="60" width="650" height="340" fill="none" stroke="#333" stroke-width="1.4"/>
<line x1="90" x2="740" y1="400" y2="400" stroke="#E5E5E5"/>
<text class="tick" x="78" y="406" text-anchor="end">0</text>
<line x1="90" x2="740" y1="315.0" y2="315.0" stroke="#E5E5E5"/>
<text class="tick" x="78" y="321.0" text-anchor="end">0.25</text>
<line x1="90" x2="740" y1="230.0" y2="230.0" stroke="#E5E5E5"/>
<text class="tick" x="78" y="236.0" text-anchor="end">0.5</text>
<line x1="90" x2="740" y1="145.0" y2="145.0" stroke="#E5E5E5"/>
<text class="tick" x="78" y="151.0" text-anchor="end">0.75</text>
<line x1="90" x2="740" y1="60.0" y2="60.0" stroke="#E5E5E5"/>
<text class="tick" x="78" y="66.0" text-anchor="end">1</text>
<line x1="90.0" x2="90.0" y1="60" y2="400" stroke="#F0F0F0"/>
<text class="tick" x="90.0" y="426" text-anchor="middle">0</text>
<line x1="198.33333333333331" x2="198.33333333333331" y1="60" y2="400" stroke="#F0F0F0"/>
<text class="tick" x="198.33333333333331" y="426" text-anchor="middle">5</text>
<line x1="306.66666666666663" x2="306.66666666666663" y1="60" y2="400" stroke="#F0F0F0"/>
<text class="tick" x="306.66666666666663" y="426" text-anchor="middle">10</text>
<line x1="415.0" x2="415.0" y1="60" y2="400" stroke="#F0F0F0"/>
<text class="tick" x="415.0" y="426" text-anchor="middle">15</text>
<line x1="523.3333333333333" x2="523.3333333333333" y1="60" y2="400" stroke="#F0F0F0"/>
<text class="tick" x="523.3333333333333" y="426" text-anchor="middle">20</text>
<line x1="740.0" x2="740.0" y1="60" y2="400" stroke="#F0F0F0"/>
<text class="tick" x="740.0" y="426" text-anchor="middle">30</text>
<text class="small" x="415.0" y="456" text-anchor="middle">pooled trajectories</text>
<text class="small" transform="translate(25,230.0) rotate(-90)" text-anchor="middle">payload recovery</text>
<path d="M111.7,400.0 L133.3,398.3 L155.0,389.8 L198.3,354.1 L263.3,241.9 L306.7,199.4 L415.0,92.3 L523.3,65.1 L740.0,60.0" fill="none" stroke="#0072B2" stroke-width="3.2"/>
<circle cx="111.7" cy="400.0" r="3.4" fill="#0072B2"/>
<circle cx="133.3" cy="398.3" r="3.4" fill="#0072B2"/>
<circle cx="155.0" cy="389.8" r="3.4" fill="#0072B2"/>
<circle cx="198.3" cy="354.1" r="3.4" fill="#0072B2"/>
<circle cx="263.3" cy="241.9" r="3.4" fill="#0072B2"/>
<circle cx="306.7" cy="199.4" r="3.4" fill="#0072B2"/>
<circle cx="415.0" cy="92.3" r="3.4" fill="#0072B2"/>
<circle cx="523.3" cy="65.1" r="3.4" fill="#0072B2"/>
<circle cx="740.0" cy="60.0" r="3.4" fill="#0072B2"/>
<path d="M111.7,394.9 L133.3,383.0 L155.0,366.0 L198.3,287.8 L263.3,163.7 L306.7,134.8 L415.0,83.8 L523.3,61.7 L740.0,60.0" fill="none" stroke="#D55E00" stroke-width="3.2" stroke-dasharray="8 4"/>
<circle cx="111.7" cy="394.9" r="3.4" fill="#D55E00"/>
<circle cx="133.3" cy="383.0" r="3.4" fill="#D55E00"/>
<circle cx="155.0" cy="366.0" r="3.4" fill="#D55E00"/>
<circle cx="198.3" cy="287.8" r="3.4" fill="#D55E00"/>
<circle cx="263.3" cy="163.7" r="3.4" fill="#D55E00"/>
<circle cx="306.7" cy="134.8" r="3.4" fill="#D55E00"/>
<circle cx="415.0" cy="83.8" r="3.4" fill="#D55E00"/>
<circle cx="523.3" cy="61.7" r="3.4" fill="#D55E00"/>
<circle cx="740.0" cy="60.0" r="3.4" fill="#D55E00"/>
<path d="M111.7,393.2 L133.3,376.2 L155.0,330.3 L198.3,245.3 L263.3,155.2 L306.7,107.6 L415.0,71.9 L523.3,63.4 L740.0,60.0" fill="none" stroke="#009E73" stroke-width="3.2"/>
<circle cx="111.7" cy="393.2" r="3.4" fill="#009E73"/>
<circle cx="133.3" cy="376.2" r="3.4" fill="#009E73"/>
<circle cx="155.0" cy="330.3" r="3.4" fill="#009E73"/>
<circle cx="198.3" cy="245.3" r="3.4" fill="#009E73"/>
<circle cx="263.3" cy="155.2" r="3.4" fill="#009E73"/>
<circle cx="306.7" cy="107.6" r="3.4" fill="#009E73"/>
<circle cx="415.0" cy="71.9" r="3.4" fill="#009E73"/>
<circle cx="523.3" cy="63.4" r="3.4" fill="#009E73"/>
<circle cx="740.0" cy="60.0" r="3.4" fill="#009E73"/>
<path d="M111.7,377.9 L133.3,321.8 L155.0,269.1 L198.3,158.6 L263.3,105.9 L306.7,77.0 L415.0,61.7 L523.3,60.0 L740.0,60.0" fill="none" stroke="#CC79A7" stroke-width="3.2" stroke-dasharray="2 4"/>
<circle cx="111.7" cy="377.9" r="3.4" fill="#CC79A7"/>
<circle cx="133.3" cy="321.8" r="3.4" fill="#CC79A7"/>
<circle cx="155.0" cy="269.1" r="3.4" fill="#CC79A7"/>
<circle cx="198.3" cy="158.6" r="3.4" fill="#CC79A7"/>
<circle cx="263.3" cy="105.9" r="3.4" fill="#CC79A7"/>
<circle cx="306.7" cy="77.0" r="3.4" fill="#CC79A7"/>
<circle cx="415.0" cy="61.7" r="3.4" fill="#CC79A7"/>
<circle cx="523.3" cy="60.0" r="3.4" fill="#CC79A7"/>
<circle cx="740.0" cy="60.0" r="3.4" fill="#CC79A7"/>
<text class="label" x="1155.0" y="32" text-anchor="middle">Gemini same-model</text>
<rect x="830" y="60" width="650" height="340" fill="none" stroke="#333" stroke-width="1.4"/>
<line x1="830" x2="1480" y1="400" y2="400" stroke="#E5E5E5"/>
<text class="tick" x="818" y="406" text-anchor="end">0</text>
<line x1="830" x2="1480" y1="315.0" y2="315.0" stroke="#E5E5E5"/>
<text class="tick" x="818" y="321.0" text-anchor="end">0.25</text>
<line x1="830" x2="1480" y1="230.0" y2="230.0" stroke="#E5E5E5"/>
<text class="tick" x="818" y="236.0" text-anchor="end">0.5</text>
<line x1="830" x2="1480" y1="145.0" y2="145.0" stroke="#E5E5E5"/>
<text class="tick" x="818" y="151.0" text-anchor="end">0.75</text>
<line x1="830" x2="1480" y1="60.0" y2="60.0" stroke="#E5E5E5"/>
<text class="tick" x="818" y="66.0" text-anchor="end">1</text>
<line x1="830.0" x2="830.0" y1="60" y2="400" stroke="#F0F0F0"/>
<text class="tick" x="830.0" y="426" text-anchor="middle">0</text>
<line x1="960.0" x2="960.0" y1="60" y2="400" stroke="#F0F0F0"/>
<text class="tick" x="960.0" y="426" text-anchor="middle">20</text>
<line x1="1090.0" x2="1090.0" y1="60" y2="400" stroke="#F0F0F0"/>
<text class="tick" x="1090.0" y="426" text-anchor="middle">40</text>
<line x1="1220.0" x2="1220.0" y1="60" y2="400" stroke="#F0F0F0"/>
<text class="tick" x="1220.0" y="426" text-anchor="middle">60</text>
<line x1="1350.0" x2="1350.0" y1="60" y2="400" stroke="#F0F0F0"/>
<text class="tick" x="1350.0" y="426" text-anchor="middle">80</text>
<line x1="1480.0" x2="1480.0" y1="60" y2="400" stroke="#F0F0F0"/>
<text class="tick" x="1480.0" y="426" text-anchor="middle">100</text>
<text class="small" x="1155.0" y="456" text-anchor="middle">pooled trajectories</text>
<text class="small" transform="translate(765,230.0) rotate(-90)" text-anchor="middle">payload recovery</text>
<path d="M836.5,400.0 L843.0,400.0 L849.5,394.9 L862.5,396.6 L882.0,379.6 L895.0,362.6 L927.5,332.0 L960.0,291.2 L1025.0,204.5 L1090.0,136.5 L1155.0,99.1 L1317.5,63.4 L1480.0,60.0" fill="none" stroke="#0072B2" stroke-width="3.2"/>
<circle cx="836.5" cy="400.0" r="3.4" fill="#0072B2"/>
<circle cx="843.0" cy="400.0" r="3.4" fill="#0072B2"/>
<circle cx="849.5" cy="394.9" r="3.4" fill="#0072B2"/>
<circle cx="862.5" cy="396.6" r="3.4" fill="#0072B2"/>
<circle cx="882.0" cy="379.6" r="3.4" fill="#0072B2"/>
<circle cx="895.0" cy="362.6" r="3.4" fill="#0072B2"/>
<circle cx="927.5" cy="332.0" r="3.4" fill="#0072B2"/>
<circle cx="960.0" cy="291.2" r="3.4" fill="#0072B2"/>
<circle cx="1025.0" cy="204.5" r="3.4" fill="#0072B2"/>
<circle cx="1090.0" cy="136.5" r="3.4" fill="#0072B2"/>
<circle cx="1155.0" cy="99.1" r="3.4" fill="#0072B2"/>
<circle cx="1317.5" cy="63.4" r="3.4" fill="#0072B2"/>
<circle cx="1480.0" cy="60.0" r="3.4" fill="#0072B2"/>
<path d="M836.5,386.4 L843.0,352.4 L849.5,304.8 L862.5,214.7 L882.0,122.9 L895.0,82.1 L927.5,61.7 L960.0,63.4 L1025.0,60.0 L1090.0,60.0 L1155.0,60.0 L1317.5,60.0 L1480.0,60.0" fill="none" stroke="#D55E00" stroke-width="3.2" stroke-dasharray="8 4"/>
<circle cx="836.5" cy="386.4" r="3.4" fill="#D55E00"/>
<circle cx="843.0" cy="352.4" r="3.4" fill="#D55E00"/>
<circle cx="849.5" cy="304.8" r="3.4" fill="#D55E00"/>
<circle cx="862.5" cy="214.7" r="3.4" fill="#D55E00"/>
<circle cx="882.0" cy="122.9" r="3.4" fill="#D55E00"/>
<circle cx="895.0" cy="82.1" r="3.4" fill="#D55E00"/>
<circle cx="927.5" cy="61.7" r="3.4" fill="#D55E00"/>
<circle cx="960.0" cy="63.4" r="3.4" fill="#D55E00"/>
<circle cx="1025.0" cy="60.0" r="3.4" fill="#D55E00"/>
<circle cx="1090.0" cy="60.0" r="3.4" fill="#D55E00"/>
<circle cx="1155.0" cy="60.0" r="3.4" fill="#D55E00"/>
<circle cx="1317.5" cy="60.0" r="3.4" fill="#D55E00"/>
<circle cx="1480.0" cy="60.0" r="3.4" fill="#D55E00"/>
<path d="M836.5,398.3 L843.0,386.4 L849.5,372.8 L862.5,337.1 L882.0,282.7 L895.0,243.6 L927.5,167.1 L960.0,128.0 L1025.0,94.0 L1090.0,68.5 L1155.0,61.7 L1317.5,60.0 L1480.0,60.0" fill="none" stroke="#009E73" stroke-width="3.2"/>
<circle cx="836.5" cy="398.3" r="3.4" fill="#009E73"/>
<circle cx="843.0" cy="386.4" r="3.4" fill="#009E73"/>
<circle cx="849.5" cy="372.8" r="3.4" fill="#009E73"/>
<circle cx="862.5" cy="337.1" r="3.4" fill="#009E73"/>
<circle cx="882.0" cy="282.7" r="3.4" fill="#009E73"/>
<circle cx="895.0" cy="243.6" r="3.4" fill="#009E73"/>
<circle cx="927.5" cy="167.1" r="3.4" fill="#009E73"/>
<circle cx="960.0" cy="128.0" r="3.4" fill="#009E73"/>
<circle cx="1025.0" cy="94.0" r="3.4" fill="#009E73"/>
<circle cx="1090.0" cy="68.5" r="3.4" fill="#009E73"/>
<circle cx="1155.0" cy="61.7" r="3.4" fill="#009E73"/>
<circle cx="1317.5" cy="60.0" r="3.4" fill="#009E73"/>
<circle cx="1480.0" cy="60.0" r="3.4" fill="#009E73"/>
<path d="M836.5,393.2 L843.0,386.4 L849.5,355.8 L862.5,318.4 L882.0,235.1 L895.0,185.8 L927.5,139.9 L960.0,77.0 L1025.0,61.7 L1090.0,60.0 L1155.0,60.0 L1317.5,60.0 L1480.0,60.0" fill="none" stroke="#CC79A7" stroke-width="3.2" stroke-dasharray="2 4"/>
<circle cx="836.5" cy="393.2" r="3.4" fill="#CC79A7"/>
<circle cx="843.0" cy="386.4" r="3.4" fill="#CC79A7"/>
<circle cx="849.5" cy="355.8" r="3.4" fill="#CC79A7"/>
<circle cx="862.5" cy="318.4" r="3.4" fill="#CC79A7"/>
<circle cx="882.0" cy="235.1" r="3.4" fill="#CC79A7"/>
<circle cx="895.0" cy="185.8" r="3.4" fill="#CC79A7"/>
<circle cx="927.5" cy="139.9" r="3.4" fill="#CC79A7"/>
<circle cx="960.0" cy="77.0" r="3.4" fill="#CC79A7"/>
<circle cx="1025.0" cy="61.7" r="3.4" fill="#CC79A7"/>
<circle cx="1090.0" cy="60.0" r="3.4" fill="#CC79A7"/>
<circle cx="1155.0" cy="60.0" r="3.4" fill="#CC79A7"/>
<circle cx="1317.5" cy="60.0" r="3.4" fill="#CC79A7"/>
<circle cx="1480.0" cy="60.0" r="3.4" fill="#CC79A7"/>
<line x1="515" x2="557" y1="510" y2="510" stroke="#0072B2" stroke-width="4"/>
<text class="legend" x="565" y="517">k=3</text>
<line x1="635" x2="677" y1="510" y2="510" stroke="#D55E00" stroke-width="4" stroke-dasharray="8 4"/>
<text class="legend" x="685" y="517">k=4</text>
<line x1="755" x2="797" y1="510" y2="510" stroke="#009E73" stroke-width="4"/>
<text class="legend" x="805" y="517">k=5</text>
<line x1="875" x2="917" y1="510" y2="510" stroke="#CC79A7" stroke-width="4" stroke-dasharray="2 4"/>
<text class="legend" x="925" y="517">k=10</text>
</svg>